<svg xmlns="http://www.w3.org/2000/svg" viewBox="0 0 240 240" role="img" aria-label="Cache Cow icon">
  <rect width="240" height="240" rx="52" fill="#F0C39B"/>
  <g>
  <ellipse cx="46" cy="92" rx="27" ry="15" fill="#221812" transform="rotate(-26 46 92)"/>
  <ellipse cx="194" cy="92" rx="27" ry="15" fill="#221812" transform="rotate(26 194 92)"/>
  <rect x="56" y="62" width="128" height="118" rx="50" fill="#221812"/>
  <path d="M104,86 L104,106 A16,6 0 0 0 136,106 L136,86" fill="#F7DDC2"/>
  <ellipse cx="120" cy="86" rx="16" ry="6" fill="#F7DDC2"/>
  <path d="M104,86 A16,6 0 0 0 136,86" fill="none" stroke="#221812" stroke-width="3"/>
  <path d="M104,96 A16,6 0 0 0 136,96" fill="none" stroke="#221812" stroke-width="3"/>
  <circle cx="90" cy="124" r="8" fill="#F7DDC2"/>
  <circle cx="150" cy="124" r="8" fill="#F7DDC2"/>
  <ellipse cx="120" cy="166" rx="47" ry="27" fill="#F7DDC2"/>
  <ellipse cx="103" cy="166" rx="5.5" ry="7.5" fill="#221812"/>
  <ellipse cx="137" cy="166" rx="5.5" ry="7.5" fill="#221812"/>
  <path d="M186.2,44.1 A18,18 0 0 0 173.1,34.3" fill="none" stroke="#E04E1B" stroke-width="9" stroke-linecap="round"/>
  <path d="M199.7,37.5 A33,33 0 0 0 175.7,19.5" fill="none" stroke="#E04E1B" stroke-width="9" stroke-linecap="round"/>
  <path d="M213.1,31.0 A48,48 0 0 0 178.3,4.7" fill="none" stroke="#E04E1B" stroke-width="9" stroke-linecap="round"/>
  </g>
</svg>