<svg xmlns="http://www.w3.org/2000/svg" viewBox="0 0 940 260" role="img" aria-label="Cache Cow. Smoked, cached, delivered.">
  <g transform="translate(10,26) scale(0.8)">
  <ellipse cx="46" cy="92" rx="27" ry="15" fill="#221812" transform="rotate(-26 46 92)"/>
  <ellipse cx="194" cy="92" rx="27" ry="15" fill="#221812" transform="rotate(26 194 92)"/>
  <rect x="56" y="62" width="128" height="118" rx="50" fill="#221812"/>
  <path d="M104,86 L104,106 A16,6 0 0 0 136,106 L136,86" fill="#F7DDC2"/>
  <ellipse cx="120" cy="86" rx="16" ry="6" fill="#F7DDC2"/>
  <path d="M104,86 A16,6 0 0 0 136,86" fill="none" stroke="#221812" stroke-width="3"/>
  <path d="M104,96 A16,6 0 0 0 136,96" fill="none" stroke="#221812" stroke-width="3"/>
  <circle cx="90" cy="124" r="8" fill="#F7DDC2"/>
  <circle cx="150" cy="124" r="8" fill="#F7DDC2"/>
  <ellipse cx="120" cy="166" rx="47" ry="27" fill="#F7DDC2"/>
  <ellipse cx="103" cy="166" rx="5.5" ry="7.5" fill="#221812"/>
  <ellipse cx="137" cy="166" rx="5.5" ry="7.5" fill="#221812"/>
  <path d="M186.2,44.1 A18,18 0 0 0 173.1,34.3" fill="none" stroke="#E04E1B" stroke-width="9" stroke-linecap="round"/>
  <path d="M199.7,37.5 A33,33 0 0 0 175.7,19.5" fill="none" stroke="#E04E1B" stroke-width="9" stroke-linecap="round"/>
  <path d="M213.1,31.0 A48,48 0 0 0 178.3,4.7" fill="none" stroke="#E04E1B" stroke-width="9" stroke-linecap="round"/>
  </g>
  <g fill="#221812">
    <path transform="translate(236,138)" d="M1.288 -35.788Q1.288 -72.864 37.352 -72.864Q46.092 -72.864 53.59 -70.748Q61.088 -68.632 64.768 -66.056V-43.056H42.688V-49.68Q42.688 -53.176 41.124 -54.832Q39.56 -56.488 36.432 -56.488Q33.304 -56.488 31.740000000000002 -54.832Q30.176 -53.176 30.176 -49.68V-21.896Q30.176 -18.4 31.740000000000002 -16.744Q33.304 -15.088 36.432 -15.088Q39.56 -15.088 41.124 -16.744Q42.688 -18.4 42.688 -21.896V-29.348H64.768V-5.52Q60.996 -2.944 53.59 -0.828Q46.184 1.288 37.536 1.288Q20.148 1.288 10.718 -7.5440000000000005Q1.288 -16.376 1.288 -35.788Z M137.29199999999997 -15.088H140.97199999999998V0.0H104.90799999999999V-15.088H110.428L108.95599999999999 -22.448H96.44399999999999L94.972 -15.088H100.49199999999999V0.0H69.02799999999999V-15.088H72.708L88.256 -71.576H121.744ZM98.46799999999999 -32.2H106.93199999999999L103.16 -50.508H102.24Z M144.864 -35.788Q144.864 -72.864 180.928 -72.864Q189.668 -72.864 197.166 -70.748Q204.664 -68.632 208.344 -66.056V-43.056H186.264V-49.68Q186.264 -53.176 184.7 -54.832Q183.136 -56.488 180.00799999999998 -56.488Q176.88 -56.488 175.31599999999997 -54.832Q173.75199999999998 -53.176 173.75199999999998 -49.68V-21.896Q173.75199999999998 -18.4 175.31599999999997 -16.744Q176.88 -15.088 180.00799999999998 -15.088Q183.136 -15.088 184.7 -16.744Q186.264 -18.4 186.264 -21.896V-29.348H208.344V-5.52Q204.572 -2.944 197.166 -0.828Q189.76 1.288 181.112 1.288Q163.724 1.288 154.29399999999998 -7.5440000000000005Q144.864 -16.376 144.864 -35.788Z M286.94 -56.488H282.34000000000003V-15.088H286.94V0.0H252.164V-15.088H256.58V-30.268H243.7V-15.088H248.11599999999999V0.0H213.34V-15.088H217.94V-56.488H213.34V-71.576H248.11599999999999V-56.488H243.7V-42.504H256.58V-56.488H252.164V-71.576H286.94Z M292.11999999999995 0.0V-15.088H296.71999999999997V-56.488H292.11999999999995V-71.576H354.21999999999997V-43.792H333.61199999999997V-56.488H322.47999999999996V-41.952H330.57599999999996V-31.464H322.47999999999996V-15.088H333.61199999999997V-29.624H354.21999999999997V0.0Z"/>
    <path transform="translate(621.9,138)" d="M1.288 -35.788Q1.288 -72.864 37.352 -72.864Q46.092 -72.864 53.59 -70.748Q61.088 -68.632 64.768 -66.056V-43.056H42.688V-49.68Q42.688 -53.176 41.124 -54.832Q39.56 -56.488 36.432 -56.488Q33.304 -56.488 31.740000000000002 -54.832Q30.176 -53.176 30.176 -49.68V-21.896Q30.176 -18.4 31.740000000000002 -16.744Q33.304 -15.088 36.432 -15.088Q39.56 -15.088 41.124 -16.744Q42.688 -18.4 42.688 -21.896V-29.348H64.768V-5.52Q60.996 -2.944 53.59 -0.828Q46.184 1.288 37.536 1.288Q20.148 1.288 10.718 -7.5440000000000005Q1.288 -16.376 1.288 -35.788Z M69.21199999999999 -35.788Q69.21199999999999 -55.199999999999996 78.36599999999999 -64.032Q87.52 -72.864 104.356 -72.864Q121.192 -72.864 130.346 -64.032Q139.5 -55.199999999999996 139.5 -35.788Q139.5 -16.376 130.346 -7.5440000000000005Q121.192 1.288 104.356 1.288Q87.52 1.288 78.36599999999999 -7.5440000000000005Q69.21199999999999 -16.376 69.21199999999999 -35.788ZM110.612 -21.896V-49.68Q110.612 -53.176 109.048 -54.832Q107.484 -56.488 104.356 -56.488Q101.228 -56.488 99.66399999999999 -54.832Q98.1 -53.176 98.1 -49.68V-21.896Q98.1 -18.308 99.66399999999999 -16.698Q101.228 -15.088 104.356 -15.088Q107.484 -15.088 109.048 -16.744Q110.612 -18.4 110.612 -21.896Z M222.788 -71.576H252.228V-56.488H248.548L234.84 0.0H207.332L198.96 -39.744H198.04000000000002L189.20800000000003 0.0H161.70000000000002L147.072 -56.488H143.39200000000002V-71.576H177.43200000000002V-56.488H173.936L177.524 -33.028H178.44400000000002L187.18400000000003 -71.576H213.68L221.776 -33.028H222.69600000000003L226.284 -56.488H222.788Z"/>
  </g>
  <path transform="translate(238,186)" fill="#E04E1B" d="M6.069 0.252Q4.221 0.252 2.856 -0.35700000000000004Q1.491 -0.9660000000000001 0.651 -2.016L2.478 -4.032Q3.2760000000000002 -3.1500000000000004 4.2315000000000005 -2.7300000000000004Q5.187 -2.31 6.174 -2.31Q7.308000000000001 -2.31 7.896000000000001 -2.814Q8.484 -3.318 8.484 -4.263Q8.484 -5.04 8.0325 -5.439Q7.581 -5.838 6.510000000000001 -6.006L4.977 -6.258Q3.003 -6.594 2.121 -7.717500000000001Q1.239 -8.841000000000001 1.239 -10.458Q1.239 -12.579 2.625 -13.7445Q4.011 -14.91 6.510000000000001 -14.91Q8.211 -14.91 9.471 -14.385000000000002Q10.731 -13.860000000000001 11.508000000000001 -12.957L9.723 -10.962000000000002Q9.135 -11.613000000000001 8.337 -11.980500000000001Q7.539000000000001 -12.348 6.531000000000001 -12.348Q4.41 -12.348 4.41 -10.605Q4.41 -9.849 4.8825 -9.471Q5.355 -9.093 6.426 -8.904L7.9590000000000005 -8.631Q9.744 -8.316 10.71 -7.287000000000001Q11.676 -6.258 11.676 -4.515000000000001Q11.676 -3.486 11.319 -2.6145Q10.962000000000002 -1.743 10.248000000000001 -1.1025Q9.534 -0.462 8.4945 -0.10500000000000001Q7.455 0.252 6.069 0.252Z M25.651000000000003 -6.531000000000001 25.819000000000003 -10.626000000000001H25.630000000000003L22.900000000000002 -3.087L20.17 -10.626000000000001H19.981L20.149 -6.531000000000001V0.0H17.419V-14.658000000000001H21.136000000000003L22.942 -9.723H23.110000000000003L24.916000000000004 -14.658000000000001H28.381V0.0H25.651000000000003Z M39.5 0.252Q36.56 0.252 35.1635 -1.7430000000000003Q33.767 -3.7380000000000004 33.767 -7.329000000000001Q33.767 -10.92 35.1635 -12.915Q36.56 -14.91 39.5 -14.91Q42.440000000000005 -14.91 43.8365 -12.915Q45.233000000000004 -10.92 45.233000000000004 -7.329000000000001Q45.233000000000004 -3.7380000000000004 43.8365 -1.7430000000000003Q42.440000000000005 0.252 39.5 0.252ZM39.5 -2.289Q40.844 -2.289 41.35850000000001 -3.2865Q41.873000000000005 -4.284000000000001 41.873000000000005 -6.069V-8.610000000000001Q41.873000000000005 -10.374 41.35850000000001 -11.371500000000001Q40.844 -12.369000000000002 39.5 -12.369000000000002Q38.156000000000006 -12.369000000000002 37.64150000000001 -11.371500000000001Q37.127 -10.374 37.127 -8.610000000000001V-6.048Q37.127 -4.284000000000001 37.64150000000001 -3.2865Q38.156000000000006 -2.289 39.5 -2.289Z M55.68000000000001 -6.111000000000001 54.37800000000001 -4.284000000000001V0.0H51.228V-14.658000000000001H54.37800000000001V-8.526H54.54600000000001L56.142 -10.962000000000002L58.72500000000001 -14.658000000000001H62.25300000000001L57.864000000000004 -8.463000000000001L62.46300000000001 0.0H58.914Z M68.08000000000001 0.0V-14.658000000000001H77.44600000000001V-12.075000000000001H71.23V-8.715H77.236V-6.132000000000001H71.23V-2.583H77.44600000000001V0.0Z M84.344 -14.658000000000001H89.069Q92.03 -14.658000000000001 93.458 -12.768Q94.886 -10.878 94.886 -7.329000000000001Q94.886 -3.7800000000000002 93.458 -1.8900000000000001Q92.03 0.0 89.069 0.0H84.344ZM88.859 -2.478Q90.266 -2.478 90.917 -3.3810000000000002Q91.568 -4.284000000000001 91.568 -6.006V-8.673Q91.568 -10.374 90.917 -11.277000000000001Q90.266 -12.180000000000001 88.859 -12.180000000000001H87.452V-2.478Z M122.49999999999999 -4.284000000000001Q121.32399999999998 -4.284000000000001 120.80949999999999 -4.798500000000001Q120.29499999999999 -5.313000000000001 120.29499999999999 -6.027V-6.7620000000000005Q120.29499999999999 -7.476000000000001 120.80949999999999 -7.990500000000001Q121.32399999999998 -8.505 122.49999999999999 -8.505Q123.67599999999999 -8.505 124.19049999999999 -7.990500000000001Q124.70499999999998 -7.476000000000001 124.70499999999998 -6.7620000000000005V-6.027Q124.70499999999998 -5.313000000000001 124.19049999999999 -4.798500000000001Q123.67599999999999 -4.284000000000001 122.49999999999999 -4.284000000000001Z M156.03599999999997 0.252Q153.09599999999998 0.252 151.67849999999999 -1.7325Q150.26099999999997 -3.717 150.26099999999997 -7.329000000000001Q150.26099999999997 -10.941 151.67849999999999 -12.9255Q153.09599999999998 -14.91 156.03599999999997 -14.91Q157.17 -14.91 158.04149999999998 -14.6055Q158.91299999999998 -14.301 159.54299999999998 -13.755Q160.17299999999997 -13.209000000000001 160.58249999999998 -12.432000000000002Q160.992 -11.655000000000001 161.22299999999998 -10.689L158.283 -9.975000000000001Q158.15699999999998 -10.5 157.98899999999998 -10.941Q157.82099999999997 -11.382000000000001 157.55849999999998 -11.697000000000001Q157.296 -12.012 156.90749999999997 -12.1905Q156.51899999999998 -12.369000000000002 155.97299999999998 -12.369000000000002Q154.69199999999998 -12.369000000000002 154.1565 -11.371500000000001Q153.62099999999998 -10.374 153.62099999999998 -8.610000000000001V-6.048Q153.62099999999998 -4.284000000000001 154.1565 -3.2865Q154.69199999999998 -2.289 155.97299999999998 -2.289Q157.06499999999997 -2.289 157.55849999999998 -2.9610000000000003Q158.05199999999996 -3.633 158.283 -4.683000000000001L161.22299999999998 -3.9690000000000003Q160.992 -3.003 160.58249999999998 -2.226Q160.17299999999997 -1.449 159.54299999999998 -0.8925000000000001Q158.91299999999998 -0.336 158.04149999999998 -0.04200000000000001Q157.17 0.252 156.03599999999997 0.252Z M175.13499999999996 0.0 174.21099999999998 -3.528H170.19999999999996L169.29699999999997 0.0H166.10499999999996L170.07399999999998 -14.658000000000001H174.52599999999998L178.49499999999998 0.0ZM172.29999999999998 -11.613000000000001H172.13199999999998L170.70399999999998 -6.069H173.72799999999998Z M189.23599999999996 0.252Q186.29599999999996 0.252 184.87849999999997 -1.7325Q183.46099999999996 -3.717 183.46099999999996 -7.329000000000001Q183.46099999999996 -10.941 184.87849999999997 -12.9255Q186.29599999999996 -14.91 189.23599999999996 -14.91Q190.36999999999998 -14.91 191.24149999999997 -14.6055Q192.11299999999997 -14.301 192.74299999999997 -13.755Q193.37299999999996 -13.209000000000001 193.78249999999997 -12.432000000000002Q194.19199999999998 -11.655000000000001 194.42299999999997 -10.689L191.48299999999998 -9.975000000000001Q191.35699999999997 -10.5 191.18899999999996 -10.941Q191.02099999999996 -11.382000000000001 190.75849999999997 -11.697000000000001Q190.49599999999998 -12.012 190.10749999999996 -12.1905Q189.71899999999997 -12.369000000000002 189.17299999999997 -12.369000000000002Q187.89199999999997 -12.369000000000002 187.35649999999998 -11.371500000000001Q186.82099999999997 -10.374 186.82099999999997 -8.610000000000001V-6.048Q186.82099999999997 -4.284000000000001 187.35649999999998 -3.2865Q187.89199999999997 -2.289 189.17299999999997 -2.289Q190.26499999999996 -2.289 190.75849999999997 -2.9610000000000003Q191.25199999999995 -3.633 191.48299999999998 -4.683000000000001L194.42299999999997 -3.9690000000000003Q194.19199999999998 -3.003 193.78249999999997 -2.226Q193.37299999999996 -1.449 192.74299999999997 -0.8925000000000001Q192.11299999999997 -0.336 191.24149999999997 -0.04200000000000001Q190.36999999999998 0.252 189.23599999999996 0.252Z M207.34799999999996 -6.132000000000001H203.65199999999996V0.0H200.48099999999997V-14.658000000000001H203.65199999999996V-8.715H207.34799999999996V-14.658000000000001H210.51899999999995V0.0H207.34799999999996Z M217.47999999999996 0.0V-14.658000000000001H226.84599999999995V-12.075000000000001H220.62999999999997V-8.715H226.63599999999997V-6.132000000000001H220.62999999999997V-2.583H226.84599999999995V0.0Z M233.74399999999994 -14.658000000000001H238.46899999999994Q241.42999999999995 -14.658000000000001 242.85799999999995 -12.768Q244.28599999999994 -10.878 244.28599999999994 -7.329000000000001Q244.28599999999994 -3.7800000000000002 242.85799999999995 -1.8900000000000001Q241.42999999999995 0.0 238.46899999999994 0.0H233.74399999999994ZM238.25899999999996 -2.478Q239.66599999999994 -2.478 240.31699999999995 -3.3810000000000002Q240.96799999999996 -4.284000000000001 240.96799999999996 -6.006V-8.673Q240.96799999999996 -10.374 240.31699999999995 -11.277000000000001Q239.66599999999994 -12.180000000000001 238.25899999999996 -12.180000000000001H236.85199999999995V-2.478Z M271.9 -4.284000000000001Q270.724 -4.284000000000001 270.2095 -4.798500000000001Q269.695 -5.313000000000001 269.695 -6.027V-6.7620000000000005Q269.695 -7.476000000000001 270.2095 -7.990500000000001Q270.724 -8.505 271.9 -8.505Q273.07599999999996 -8.505 273.59049999999996 -7.990500000000001Q274.10499999999996 -7.476000000000001 274.10499999999996 -6.7620000000000005V-6.027Q274.10499999999996 -5.313000000000001 273.59049999999996 -4.798500000000001Q273.07599999999996 -4.284000000000001 271.9 -4.284000000000001Z M300.144 -14.658000000000001H304.869Q307.83000000000004 -14.658000000000001 309.25800000000004 -12.768Q310.68600000000004 -10.878 310.68600000000004 -7.329000000000001Q310.68600000000004 -3.7800000000000002 309.25800000000004 -1.8900000000000001Q307.83000000000004 0.0 304.869 0.0H300.144ZM304.659 -2.478Q306.06600000000003 -2.478 306.717 -3.3810000000000002Q307.368 -4.284000000000001 307.368 -6.006V-8.673Q307.368 -10.374 306.717 -11.277000000000001Q306.06600000000003 -12.180000000000001 304.659 -12.180000000000001H303.252V-2.478Z M317.08000000000004 0.0V-14.658000000000001H326.446V-12.075000000000001H320.23V-8.715H326.23600000000005V-6.132000000000001H320.23V-2.583H326.446V0.0Z M333.9320000000001 0.0V-14.658000000000001H337.10300000000007V-2.583H343.4030000000001V0.0Z M350.17500000000007 0.0V-2.331H353.3250000000001V-12.327H350.17500000000007V-14.658000000000001H359.62500000000006V-12.327H356.4750000000001V-2.331H359.62500000000006V0.0Z M369.2740000000001 0.0 365.3890000000001 -14.658000000000001H368.89600000000013L370.6180000000001 -7.203L371.4790000000001 -2.982H371.6470000000001L372.5290000000001 -7.203L374.2720000000001 -14.658000000000001H377.6110000000001L373.7260000000001 0.0Z M383.48000000000013 0.0V-14.658000000000001H392.8460000000001V-12.075000000000001H386.6300000000001V-8.715H392.63600000000014V-6.132000000000001H386.6300000000001V-2.583H392.8460000000001V0.0Z M403.10400000000016 0.0H399.99600000000015V-14.658000000000001H405.66600000000017Q406.73700000000014 -14.658000000000001 407.5770000000001 -14.332500000000001Q408.41700000000014 -14.007000000000001 408.99450000000013 -13.398000000000001Q409.5720000000002 -12.789000000000001 409.86600000000016 -11.928Q410.16000000000014 -11.067 410.16000000000014 -9.996Q410.16000000000014 -8.442 409.48800000000017 -7.329000000000001Q408.81600000000014 -6.216 407.57700000000017 -5.859L410.4540000000001 0.0H407.01000000000016L404.55300000000017 -5.439H403.10400000000016ZM404.91000000000014 -7.875000000000001Q406.02300000000014 -7.875000000000001 406.45350000000013 -8.295Q406.8840000000001 -8.715 406.8840000000001 -9.681000000000001V-10.311Q406.8840000000001 -11.277000000000001 406.45350000000013 -11.697000000000001Q406.02300000000014 -12.117 404.91000000000014 -12.117H403.10400000000016V-7.875000000000001Z M416.6800000000002 0.0V-14.658000000000001H426.04600000000016V-12.075000000000001H419.83000000000015V-8.715H425.8360000000002V-6.132000000000001H419.83000000000015V-2.583H426.04600000000016V0.0Z M432.9440000000002 -14.658000000000001H437.6690000000002Q440.6300000000002 -14.658000000000001 442.0580000000002 -12.768Q443.4860000000002 -10.878 443.4860000000002 -7.329000000000001Q443.4860000000002 -3.7800000000000002 442.0580000000002 -1.8900000000000001Q440.6300000000002 0.0 437.6690000000002 0.0H432.9440000000002ZM437.4590000000002 -2.478Q438.8660000000002 -2.478 439.51700000000017 -3.3810000000000002Q440.1680000000002 -4.284000000000001 440.1680000000002 -6.006V-8.673Q440.1680000000002 -10.374 439.51700000000017 -11.277000000000001Q438.8660000000002 -12.180000000000001 437.4590000000002 -12.180000000000001H436.0520000000002V-2.478Z"/>
</svg>